# xmcd
#
# Track frame offsets: 
#        225
#        10646
#        21982
#        30981
#        40920
#        51992
#        65364
#        74866
#        88177
#
# Disc length: 1358 seconds
#
# Revision: 0
# Processed by: cddbd v1.5.1PL2 Copyright (c) Steve Scherf et al.
# Submitted via: ExactAudioCopy v0.95b4
#
DISCID=77054b09
DTITLE=Jean Shepard - Best of the Best of Jean Shepard
DYEAR=1900
DGENRE=Country
TTITLE0=A Dear John Letter (w/ Ferlin Husky)
TTITLE1=Satisfied Mind
TTITLE2=Second Fiddle (To an Old Guitar)
TTITLE3=Many Happy Hangovers To You
TTITLE4=Key's in the Mailbox
TTITLE5=Two of Us
TTITLE6=Why Don't You Haul Off and Love Me
TTITLE7=Jackson (w/ Red Sovine)
TTITLE8=Two Little Boys
EXTD=
EXTT0=
EXTT1=
EXTT2=
EXTT3=
EXTT4=
EXTT5=
EXTT6=
EXTT7=
EXTT8=
PLAYORDER=
